<svg width="59" height="71" viewBox="0 0 59 71" fill="none" xmlns="http://www.w3.org/2000/svg">
<path d="M30.3048 37.9468H11.9851C11.4949 37.9468 11.0398 37.6954 10.7784 37.2806L8.66408 33.9269L7.28639 31.7397L1.97929 23.3253L0.221984 20.5372C-0.376354 19.5869 0.304948 18.3525 1.42872 18.3525H17.9484L18.3355 18.9635L19.492 20.7987L20.2311 21.9778L22.3328 25.3063L22.7476 25.9675L26.0963 31.2797L26.9184 32.5794L27.4288 33.3914L27.65 33.7434L30.3048 37.9494V37.9468Z" fill="url(#paint0_linear_381_48)"/>
<path d="M43.5111 40.9086L39.451 52.7647L38.3071 56.1034L34.8453 66.2072L33.5908 69.8702C33.3293 70.6344 32.4846 71.0291 31.7304 70.7375L26.8708 68.8671L20.6637 66.4788L18.3382 65.5838C17.6242 65.3072 17.2547 64.5178 17.501 63.7913L18.2377 61.6418L19.2408 58.723H19.2382L21.5562 51.9577L23.3587 46.6959L23.3839 46.623L23.8439 45.283L26.6119 37.5574L27.0116 36.5166H44.019C44.5067 36.5166 44.8511 36.9968 44.6927 37.4594L43.5086 40.9111L43.5111 40.9086Z" fill="url(#paint1_linear_381_48)"/>
<path d="M57.929 0C58.5977 0 59.0528 0.67879 58.7988 1.29975L58.3262 2.44363L54.3088 12.1427L54.0046 12.8794L51.6691 18.5258C51.4503 19.0563 50.935 19.4032 50.3593 19.4058L17.2144 19.5893L17.8403 18.0758L19.9144 13.0729L19.927 13.0428L23.057 5.47806L24.314 2.44363L24.7087 1.49082L24.9626 0.879909C25.1838 0.346935 25.7017 0.00251648 26.2799 0.00251648H57.9315L57.929 0Z" fill="url(#paint2_linear_381_48)"/>
<defs>
<linearGradient id="paint0_linear_381_48" x1="0.00075026" y1="28.1522" x2="30.3048" y2="28.1522" gradientUnits="userSpaceOnUse">
<stop offset="0.12" stop-color="#468585"/>
<stop offset="0.25" stop-color="#48928A"/>
<stop offset="0.49" stop-color="#4CA491"/>
<stop offset="0.74" stop-color="#4FB096"/>
<stop offset="1" stop-color="#50B498"/>
</linearGradient>
<linearGradient id="paint1_linear_381_48" x1="27.077" y1="39.7773" x2="37.7214" y2="69.116" gradientUnits="userSpaceOnUse">
<stop offset="0.22" stop-color="#50B498"/>
<stop offset="0.42" stop-color="#4DA692"/>
<stop offset="0.79" stop-color="#468585"/>
</linearGradient>
<linearGradient id="paint2_linear_381_48" x1="17.2118" y1="9.79213" x2="58.8692" y2="9.79213" gradientUnits="userSpaceOnUse">
<stop offset="0.08" stop-color="#4EAA94"/>
<stop offset="0.9" stop-color="#468585"/>
</linearGradient>
</defs>
</svg>
