<svg width="27" height="27" viewBox="0 0 27 27" fill="none" xmlns="http://www.w3.org/2000/svg">
<path d="M23.625 12.9375C23.6289 14.4224 23.282 15.8872 22.6125 17.2125C21.8187 18.8007 20.5985 20.1366 19.0884 21.0705C17.5783 22.0043 15.838 22.4993 14.0625 22.5C12.5776 22.5039 11.1129 22.157 9.7875 21.4875L3.375 23.625L5.5125 17.2125C4.84305 15.8872 4.49613 14.4224 4.5 12.9375C4.50069 11.162 4.99569 9.42174 5.92956 7.91165C6.86343 6.40156 8.19929 5.1813 9.7875 4.38753C11.1129 3.71808 12.5776 3.37116 14.0625 3.37503H14.625C16.9699 3.5044 19.1847 4.49414 20.8453 6.15475C22.5059 7.81536 23.4956 10.0301 23.625 12.375V12.9375Z" stroke="white" stroke-width="2" stroke-linecap="round" stroke-linejoin="round"/>
</svg>
